<svg width="63" height="41" viewBox="0 0 63 41" fill="none" xmlns="http://www.w3.org/2000/svg">
<path fill-rule="evenodd" clip-rule="evenodd" d="M41.8924 4.3817H39.9359V2.38713C39.9359 1.08957 38.896 0.0126953 37.6429 0.0126953H25.6557C24.4027 0.0126953 23.3627 1.08957 23.3627 2.38713V4.3817H21.2222C17.9508 4.3817 15.3212 7.10585 15.3212 10.4933V26.451C15.3212 29.8384 17.9508 32.5614 21.2222 32.5614H41.8924C45.1649 32.5614 47.7946 29.8384 47.7946 26.451V10.4933C47.7946 7.13721 45.1335 4.3817 41.8924 4.3817ZM62.1959 16.1297L49.3842 9.8915C49.3842 10.082 49.4145 10.2714 49.4145 10.4619V11.2216L60.6679 16.6989C61.3702 17.0474 61.645 17.9024 61.3399 18.5982L54.8881 32.8472C54.5515 33.5756 53.7258 33.8601 53.0539 33.543L47.9471 31.0733C46.5706 32.9738 44.3998 34.2087 41.9239 34.2087H38.9577L51.3105 40.1924C52.0139 40.5409 52.8396 40.2237 53.1447 39.4966L62.8993 17.9976C63.1741 17.332 62.869 16.477 62.1959 16.1297ZM21.2222 34.24C18.7451 34.24 16.544 32.9738 15.1675 31.0419L9.9699 33.5756C9.26649 33.9241 8.4408 33.6069 8.13567 32.8785L1.68385 18.6307C1.34729 17.9024 1.65241 17.0474 2.35582 16.7314L13.7304 11.1903V10.4933C13.7304 10.2714 13.7304 10.0495 13.7618 9.82879L0.796435 16.1297C0.0930237 16.477 -0.181819 17.332 0.123303 18.029L9.8779 39.5593C10.2145 40.2876 11.0402 40.5722 11.7133 40.2563L24.0661 34.2714H21.2222V34.24ZM42.0147 6.09168C42.993 6.12424 43.8804 6.5041 44.5838 7.10585L40.5473 11.2843C40.0582 10.5885 39.4771 9.95541 38.8354 9.38502L42.0147 6.09168ZM31.4053 8.24544C36.8474 8.24544 41.2508 12.805 41.2508 18.4402C41.2508 24.0766 36.8474 28.6362 31.4053 28.6362C25.962 28.6362 21.5587 24.0453 21.5587 18.4088C21.5587 12.7724 25.962 8.24544 31.4053 8.24544ZM29.3859 6.72478L29.9973 6.09168H33.5447L32.995 6.66208C32.4744 6.59937 31.955 6.53546 31.4053 6.53546C30.7019 6.53546 30.0288 6.59937 29.3859 6.72478ZM39.5691 6.09168L37.4286 8.30814C36.6634 7.83422 35.8692 7.4218 35.0121 7.1372L36.0218 6.09168H39.5691ZM24.9826 2.38713C24.9826 2.00727 25.2889 1.72267 25.6255 1.72267H37.6114C37.9783 1.72267 38.2543 2.03983 38.2543 2.38713V3.33739H24.9826V2.38713ZM24.0055 6.09168H27.5214L25.3809 8.30814C23.8518 9.28975 22.537 10.6199 21.589 12.2346L20.7936 13.0582H17.2474L24.0055 6.09168ZM16.9726 10.4933C16.9726 8.0549 18.8988 6.09168 21.2222 6.09168H21.5284L16.9726 10.8104V10.4933ZM16.9726 26.451V25.8179L19.3565 23.3482H20.9473C21.1616 23.7908 21.3759 24.2346 21.6193 24.6784L17.6143 28.7941C17.2171 28.0971 16.9726 27.306 16.9726 26.451ZM21.2222 30.8526C20.3359 30.8526 19.5102 30.5668 18.8371 30.0929L22.6593 26.1351C23.2101 26.7996 23.8215 27.4013 24.4935 27.9078L21.6507 30.8526H21.2222ZM27.6437 30.8526H24.0964L25.9923 28.8894C26.7877 29.332 27.6437 29.6805 28.5311 29.9024L27.6437 30.8526ZM33.667 30.8526H30.1208L30.7019 30.2509C30.9465 30.2509 31.1596 30.2822 31.4053 30.2822C32.5361 30.2822 33.6367 30.0929 34.6767 29.7757L33.667 30.8526ZM42.137 30.8526L46.1129 26.7356C45.9895 28.9521 44.2775 30.726 42.137 30.8526ZM46.1432 24.1393L39.6611 30.8526H36.1138L43.3913 23.3169H46.1432V24.1393ZM46.1432 11.6967L44.8284 13.0582H41.6176C41.5873 12.9943 41.5559 12.899 41.4953 12.8363L45.6843 8.53003C45.9895 9.13178 46.1432 9.79623 46.1432 10.5246V11.6967ZM31.4053 26.9575C35.9612 26.9575 39.6611 23.1264 39.6611 18.4088C39.6611 13.6913 35.9612 9.86015 31.4053 9.86015C26.8483 9.86015 23.1484 13.6913 23.1484 18.4088C23.1484 23.1264 26.8483 26.9575 31.4053 26.9575ZM31.4053 11.8861C34.8909 11.8861 37.7034 14.7996 37.7034 18.4088C37.7034 22.0181 34.8909 24.9316 31.4053 24.9316C27.9185 24.9316 25.1061 22.0181 25.1061 18.4088C25.0746 14.8309 27.9185 11.8861 31.4053 11.8861ZM26.2066 18.4088C26.2066 15.4327 28.5311 13.0269 31.4053 13.0269C32.5361 13.0269 33.575 13.4055 34.4321 14.0398C32.0167 16.5409 29.6002 19.0419 27.1849 21.543C26.5734 20.688 26.2066 19.581 26.2066 18.4088Z" fill="#131313"/>
</svg>
