<svg width="42" height="35" viewBox="0 0 42 35" fill="none" xmlns="http://www.w3.org/2000/svg">
<path d="M0.5 0.5V24.5H5.89063L5.75 26L7.25 26.1406L10.6719 26.5156L10.4375 27.8281L10.1563 29.2813L11.6094 29.5625L35.1875 34.0625L36.6406 34.3438L36.9219 32.8906L40.9531 12.1719L41.2813 10.7188L39.7813 10.4375L34.7188 9.45313L35 6.5L35.1406 5.04688L33.6875 4.85938L27.5 4.10938V0.500005L0.5 0.5ZM3.5 3.5H24.5V21.5H3.5V3.5ZM14 6.5C11.5332 6.5 9.5 8.53321 9.5 11C9.5 12.0078 9.82227 12.9629 10.3906 13.7188C8.9375 14.8145 8 16.5371 8 18.5H11C11 16.7129 12.2129 15.5 14 15.5C15.7871 15.5 17 16.7129 17 18.5H20C20 16.5371 19.0625 14.8145 17.6094 13.7188C18.1777 12.9629 18.5 12.0078 18.5 11C18.5 8.53321 16.4668 6.5 14 6.5ZM27.5 7.10937L31.8594 7.67188L30.0313 25.5313L20.4219 24.5H27.5V7.10937ZM14 9.5C14.8438 9.5 15.5 10.1562 15.5 11C15.5 11.8438 14.8438 12.5 14 12.5C13.1562 12.5 12.5 11.8438 12.5 11C12.5 10.1562 13.1562 9.5 14 9.5ZM34.3906 12.4531L37.7656 13.1094L34.25 30.8281L13.6719 26.8906V26.7969L31.25 28.6719L32.75 28.8594L32.8906 27.3594L34.3906 12.4531Z" fill="#EE3D48"/>
</svg>
