<?xml version="1.0" encoding="utf-8"?>
<!-- Generator: Adobe Illustrator 25.0.0, SVG Export Plug-In . SVG Version: 6.00 Build 0)  -->
<svg version="1.1" id="Capa_1" xmlns="http://www.w3.org/2000/svg" xmlns:xlink="http://www.w3.org/1999/xlink" x="0px" y="0px"
	 viewBox="0 0 284.9 284.9" style="enable-background:new 0 0 284.9 284.9;" xml:space="preserve">
<style type="text/css">
	.st0{fill:#EE3D48;}
</style>
<g>
	<g>
		<path class="st0" d="M17.1,167.9c1.9,1.9,4.1,2.9,6.6,2.9s4.7-1,6.6-2.9L142.5,55.7l112.2,112.2c1.9,1.9,4.1,2.9,6.6,2.9
			c2.5,0,4.7-1,6.6-2.9l14.3-14.3c1.9-1.9,2.8-4.1,2.8-6.6c0-2.5-1-4.7-2.8-6.6L149,7.4c-1.9-1.9-4.1-2.9-6.6-2.9s-4.7,0.9-6.6,2.9
			l-133,133C0.9,142.4,0,144.6,0,147c0,2.5,1,4.7,2.9,6.6L17.1,167.9z"/>
		<path class="st0" d="M149,117.1c-1.9-1.9-4.1-2.9-6.6-2.9s-4.7,1-6.6,2.9l-133,133C0.9,252,0,254.2,0,256.7c0,2.5,1,4.7,2.9,6.6
			l14.3,14.3c1.9,1.9,4.1,2.8,6.6,2.8s4.7-1,6.6-2.8l112.2-112.2l112.2,112.2c1.9,1.9,4.1,2.9,6.6,2.9c2.5,0,4.7-0.9,6.6-2.9
			l14.3-14.3c1.9-1.9,2.8-4.1,2.8-6.6c0-2.5-1-4.7-2.8-6.6L149,117.1z"/>
	</g>
</g>
</svg>
